HIERARCHY
ROOT Hips
{
	OFFSET -0.001795 -0.223333 0.028219
	CHANNELS 6 Xposition Yposition Zposition Zrotation Yrotation Xrotation 
	JOINT LeftUpLeg
	{
		OFFSET 0.069520 -0.091406 -0.006815
		CHANNELS 3 Zrotation Yrotation Xrotation
		JOINT LeftLeg
		{
			OFFSET 0.034277 -0.375199 -0.004496
			CHANNELS 3 Zrotation Yrotation Xrotation
			JOINT LeftFoot
			{
				OFFSET -0.013596 -0.397961 -0.043693
				CHANNELS 3 Zrotation Yrotation Xrotation
				JOINT LeftToe
				{
					OFFSET 0.026358 -0.055791 0.119288
					CHANNELS 3 Zrotation Yrotation Xrotation
					End Site
					{
						OFFSET 0.000000 0.000000 0.000000
					}
				}
			}
		}
	}
	JOINT RightUpLeg
	{
		OFFSET -0.067670 -0.090522 -0.004320
		CHANNELS 3 Zrotation Yrotation Xrotation
		JOINT RightLeg
		{
			OFFSET -0.038290 -0.382569 -0.008850
			CHANNELS 3 Zrotation Yrotation Xrotation
			JOINT RightFoot
			{
				OFFSET 0.015774 -0.398415 -0.042312
				CHANNELS 3 Zrotation Yrotation Xrotation
				JOINT RightToe
				{
					OFFSET -0.025372 -0.048144 0.123348
					CHANNELS 3 Zrotation Yrotation Xrotation
					End Site
					{
						OFFSET 0.000000 0.000000 0.000000
					}
				}
			}
		}
	}
	JOINT Spine
	{
		OFFSET -0.002533 0.108963 -0.026696
		CHANNELS 3 Zrotation Yrotation Xrotation
		JOINT Spine1
		{
			OFFSET 0.005487 0.135180 0.001092
			CHANNELS 3 Zrotation Yrotation Xrotation
			JOINT Spine2
			{
				OFFSET 0.001457 0.052922 0.025425
				CHANNELS 3 Zrotation Yrotation Xrotation
				JOINT Neck
				{
					OFFSET -0.002778 0.213870 -0.042857
					CHANNELS 3 Zrotation Yrotation Xrotation
					JOINT Head
					{
						OFFSET 0.005152 0.064970 0.051349
						CHANNELS 3 Zrotation Yrotation Xrotation
						End Site
						{
							OFFSET 0.000000 0.000000 0.000000
						}
					}
				}
				JOINT LeftShoulder
				{
					OFFSET 0.078845 0.121749 -0.034090
					CHANNELS 3 Zrotation Yrotation Xrotation
					JOINT LeftArm
					{
						OFFSET 0.090977 0.030469 -0.008868
						CHANNELS 3 Zrotation Yrotation Xrotation
						JOINT LeftForeArm
						{
							OFFSET 0.259612 -0.012772 -0.027456
							CHANNELS 3 Zrotation Yrotation Xrotation
							JOINT LeftHand
							{
								OFFSET 0.249234 0.008986 -0.001171
								CHANNELS 3 Zrotation Yrotation Xrotation
								End Site
								{
									OFFSET 0.000000 0.000000 0.000000
								}
							}
						}
					}
				}
				JOINT RightShoulder
				{
					OFFSET -0.081759 0.118833 -0.038615
					CHANNELS 3 Zrotation Yrotation Xrotation
					JOINT RightArm
					{
						OFFSET -0.096012 0.032551 -0.009143
						CHANNELS 3 Zrotation Yrotation Xrotation
						JOINT RightForeArm
						{
							OFFSET -0.253742 -0.013329 -0.021401
							CHANNELS 3 Zrotation Yrotation Xrotation
							JOINT RightHand
							{
								OFFSET -0.255298 0.007772 -0.005559
								CHANNELS 3 Zrotation Yrotation Xrotation
								End Site
								{
									OFFSET 0.000000 0.000000 0.000000
								}
							}
						}
					}
				}
			}
		}
	}
}
MOTION
Frames: 13
Frame Time: 0.050000
0.000000 0.966752 0.000000 -4.067939 -2.105085 6.934259 5.859557 -0.384653 -6.516718 -2.535972 0.328872 -3.977844 3.199793 10.150152 15.157259 0.000000 0.000000 0.000000 -3.382747 0.505958 -5.018571 1.463799 -0.121927 0.817124 -2.194776 -9.973456 14.394455 0.000000 0.000000 0.000000 -4.271884 0.093130 17.868132 2.754057 -0.379314 -17.986564 3.070599 5.612347 26.995158 -2.111242 3.504808 -26.025015 0.000000 0.000000 0.000000 -23.011240 -17.916860 7.842985 -48.625661 -33.914616 6.133960 14.644308 -20.629739 -1.649545 0.000000 0.000000 0.000000 17.147500 27.957734 14.979575 60.621313 37.149325 12.277077 -12.793625 16.999460 -0.901831 0.000000 0.000000 0.000000 
0.002757 0.965277 0.001484 -4.689514 -4.837617 7.210325 5.939007 -0.319846 -5.815762 -1.876472 0.300089 -4.576212 4.303355 11.463229 15.063756 0.000000 0.000000 0.000000 -3.496833 0.614212 -6.269107 2.568041 -0.219371 0.912206 -1.959308 -10.286648 15.709397 0.000000 0.000000 0.000000 -4.510504 0.219088 17.424882 3.725298 -0.694972 -18.389131 2.818773 7.114167 27.831501 -3.389909 4.256454 -25.945182 0.000000 0.000000 0.000000 -24.914938 -16.118068 6.971281 -46.691924 -33.783974 5.576023 14.693121 -21.173546 -1.681763 0.000000 0.000000 0.000000 18.838024 28.448837 15.694691 60.696824 36.819558 11.962731 -14.789199 18.938155 -1.266075 0.000000 0.000000 0.000000 
0.005063 0.965298 0.002783 -4.424205 -5.003909 6.711383 6.038638 -0.299026 -5.583273 -2.674073 0.356000 -3.914211 4.069849 11.076523 14.932838 0.000000 0.000000 0.000000 -3.942312 0.546550 -5.370041 2.178164 -0.202228 -0.058660 -1.415315 -9.631083 16.682443 0.000000 0.000000 0.000000 -4.576448 0.235843 17.804179 3.078662 -0.518996 -18.422066 3.166768 6.849187 27.459348 -3.698787 4.355371 -24.414291 0.000000 0.000000 0.000000 -26.676694 -16.011385 7.127173 -44.732794 -34.468835 5.495335 13.728757 -19.191960 -1.358395 0.000000 0.000000 0.000000 17.066323 28.240823 14.911662 62.038077 35.958791 11.982812 -12.863071 20.175347 -1.115646 0.000000 0.000000 0.000000 
0.006902 0.965182 0.003735 -4.786007 -6.421656 6.654765 5.982125 -0.254700 -4.874228 -2.295860 0.338863 -4.434047 4.796440 12.034263 15.091053 0.000000 0.000000 0.000000 -4.073638 0.547796 -5.253974 2.435534 -0.228686 -0.624797 -0.457762 -8.420713 17.271475 0.000000 0.000000 0.000000 -5.493785 0.441116 17.218519 4.394466 -0.917168 -18.397795 2.993943 7.171914 28.411686 -3.613755 4.259506 -25.745739 0.000000 0.000000 0.000000 -27.126812 -15.632651 7.155309 -44.940356 -33.890551 5.163619 15.255104 -20.202078 -1.649826 0.000000 0.000000 0.000000 17.877354 28.666255 15.227272 61.228633 35.612819 11.394045 -13.032222 20.966440 -1.195979 0.000000 0.000000 0.000000 
0.008192 0.965743 0.004275 -4.906562 -6.626583 6.224019 6.180015 -0.217818 -4.251790 -2.600917 0.367875 -4.561194 4.837947 12.089505 15.174939 0.000000 0.000000 0.000000 -4.064120 0.502839 -4.636198 2.185288 -0.206955 -0.593775 0.146345 -7.358903 17.001095 0.000000 0.000000 0.000000 -5.507961 0.447349 17.417385 4.498834 -0.995948 -17.812873 2.798368 7.253523 27.769607 -3.273451 4.050346 -25.856717 0.000000 0.000000 0.000000 -27.766747 -15.404790 7.028580 -44.829487 -32.925543 4.833654 15.954368 -20.847196 -1.830191 0.000000 0.000000 0.000000 17.395380 27.839167 14.607989 62.248467 34.210268 10.909743 -12.756762 22.852778 -1.256963 0.000000 0.000000 0.000000 
0.009225 0.966226 0.004089 -4.949758 -7.087605 6.040260 6.177271 -0.209745 -4.298108 -2.688435 0.370758 -4.009733 5.072914 12.400783 15.230897 0.000000 0.000000 0.000000 -4.350979 0.510595 -4.674407 2.163724 -0.195959 -0.262981 0.951319 -6.101229 17.080464 0.000000 0.000000 0.000000 -5.757741 0.513410 17.635031 4.878856 -1.043109 -18.783160 2.467101 7.039922 28.628411 -2.719629 3.684663 -26.657727 0.000000 0.000000 0.000000 -27.415917 -15.207526 7.126584 -45.009316 -32.187360 4.419295 16.226885 -22.819275 -2.032685 0.000000 0.000000 0.000000 17.645518 27.532579 14.375791 61.896767 33.044965 9.984181 -12.012664 24.646496 -1.226173 0.000000 0.000000 0.000000 
0.010005 0.966255 0.003243 -5.143145 -7.171109 6.107918 6.451003 -0.200054 -4.310640 -2.883033 0.390261 -4.148850 5.113222 12.454857 15.255982 0.000000 0.000000 0.000000 -4.094607 0.523665 -4.904951 1.758943 -0.164448 -0.379290 1.313827 -5.771970 17.819778 0.000000 0.000000 0.000000 -5.781562 0.523851 17.746510 5.164865 -1.122955 -18.779934 2.226428 6.968104 28.127503 -2.605400 3.596687 -26.664455 0.000000 0.000000 0.000000 -28.386070 -14.620738 6.828612 -45.115919 -30.977412 4.004670 16.759667 -24.949006 -2.334106 0.000000 0.000000 0.000000 18.226272 26.995987 14.217654 61.474322 31.387334 8.888594 -11.460868 26.293535 -1.199352 0.000000 0.000000 0.000000 
0.010566 0.966126 0.002191 -5.182783 -7.974979 6.167127 6.589722 -0.191734 -4.648882 -2.959860 0.402801 -4.212846 5.520574 13.105235 16.953935 0.000000 0.000000 0.000000 -4.020533 0.586248 -5.744676 1.623896 -0.134091 0.203565 1.470389 -5.895468 18.471166 0.000000 0.000000 0.000000 -6.123473 0.615863 17.683510 5.207076 -1.095539 -19.461971 2.354818 7.175369 28.724648 -2.157189 3.317649 -27.076396 0.000000 0.000000 0.000000 -28.825979 -14.008385 6.596225 -45.175191 -29.678786 3.410700 18.004787 -28.674624 -2.963382 0.000000 0.000000 0.000000 18.877901 26.446182 14.021584 60.505618 29.453984 7.438928 -10.932225 28.630366 -1.181364 0.000000 0.000000 0.000000 
0.010610 0.966034 0.001402 -5.242676 -8.204622 6.237272 6.901210 -0.175689 -4.679838 -3.224110 0.433057 -4.705372 5.543283 13.191611 18.080756 0.000000 0.000000 0.000000 -3.880453 0.602909 -5.965112 1.220845 -0.102905 0.055063 1.911661 -5.436426 19.067595 0.000000 0.000000 0.000000 -6.246336 0.644568 17.606430 5.393683 -1.160544 -19.345755 2.270808 7.144729 28.438732 -1.903449 3.148239 -27.149798 0.000000 0.000000 0.000000 -29.709354 -13.152997 6.120576 -45.171938 -28.175013 2.843244 18.887328 -34.714379 -3.869465 0.000000 0.000000 0.000000 19.005145 25.442576 13.468802 60.331573 27.207723 6.117999 -10.278010 31.811180 -1.114877 0.000000 0.000000 0.000000 
0.009907 0.966165 0.001287 -5.386803 -9.250048 6.232764 7.042973 -0.143196 -4.440330 -3.246094 0.442706 -4.725391 6.077896 13.843515 18.348430 0.000000 0.000000 0.000000 -3.744178 0.646574 -6.490675 0.875198 -0.052896 0.572420 2.829290 -4.249902 19.353980 0.000000 0.000000 0.000000 -6.493274 0.710907 17.255121 5.379025 -1.134325 -19.857747 2.558828 7.238563 29.148448 -1.405126 2.787095 -27.166671 0.000000 0.000000 0.000000 -30.130830 -12.588488 6.030992 -45.247625 -27.083291 2.298436 20.309944 -41.689686 -5.129439 0.000000 0.000000 0.000000 18.835817 24.877273 12.968808 59.943574 24.777400 4.625426 -9.245402 35.926844 -0.929727 0.000000 0.000000 0.000000 
0.008397 0.966589 0.002063 -5.499912 -9.701854 6.249253 7.124680 -0.122578 -4.104672 -3.077738 0.434337 -5.037597 6.281791 14.092213 18.624724 0.000000 0.000000 0.000000 -3.507150 0.659057 -6.632365 0.712533 -0.036153 0.612602 3.143914 -3.993142 19.759446 0.000000 0.000000 0.000000 -6.383661 0.678798 16.709613 5.381359 -1.135939 -19.951313 2.485842 6.744931 29.029230 -0.929398 2.382164 -27.061772 0.000000 0.000000 0.000000 -30.649905 -11.732814 5.817172 -45.671488 -25.523220 1.656834 21.742762 -50.641054 -6.856519 0.000000 0.000000 0.000000 18.696867 23.730852 12.100553 60.014779 22.254430 3.233958 -7.371514 40.199612 -0.372045 0.000000 0.000000 0.000000 
0.006090 0.967216 0.003717 -5.347215 -10.342016 5.936500 6.914460 -0.099844 -3.521187 -3.229506 0.452781 -5.038633 7.116841 15.225538 18.788956 0.000000 0.000000 0.000000 -3.565417 0.641449 -6.393539 0.524425 -0.018929 0.606772 3.687671 -3.375139 20.097595 0.000000 0.000000 0.000000 -6.261149 0.635729 15.946296 5.278764 -1.103162 -20.202110 2.300907 6.050731 29.254345 -0.664509 2.049853 -27.128042 0.000000 0.000000 0.000000 -30.600971 -10.901891 5.745701 -46.410805 -24.526417 1.181558 22.229102 -58.787352 -8.123724 0.000000 0.000000 0.000000 18.405990 23.070518 11.373910 60.439969 19.381239 1.696973 -4.798788 44.621168 0.577131 0.000000 0.000000 0.000000 
0.002950 0.967313 0.006092 -5.273247 -11.183388 5.657016 6.889183 -0.056160 -2.621920 -3.480780 0.485718 -5.375043 7.921883 16.291515 18.736539 0.000000 0.000000 0.000000 -3.374769 0.615429 -6.056059 0.622567 -0.020825 0.744637 3.488221 -3.599059 19.461992 0.000000 0.000000 0.000000 -6.137462 0.592586 15.060771 5.424685 -1.134379 -20.485373 2.037409 5.290690 29.352728 -0.336325 1.647423 -27.179582 0.000000 0.000000 0.000000 -30.049146 -10.349856 5.924703 -47.403706 -23.425108 0.666042 23.010447 -66.284795 -9.480656 0.000000 0.000000 0.000000 18.371367 21.712029 10.280383 60.458486 16.675409 0.206516 -1.295013 48.277500 2.076073 0.000000 0.000000 0.000000 
